<svg width="46" height="46" viewBox="0 0 46 46" fill="none" xmlns="http://www.w3.org/2000/svg">
<path d="M32.68 38.87C30.8017 40.6908 28.7509 40.4033 26.7767 39.5408C24.6876 38.6592 22.7709 38.6208 20.5667 39.5408C17.8067 40.7292 16.3501 40.3842 14.7017 38.87C5.34838 29.2292 6.72838 14.5475 17.3467 14.0108C19.9342 14.145 21.7359 15.4292 23.2501 15.5442C25.5117 15.0842 27.6776 13.7617 30.0926 13.9342C32.9867 14.1642 35.1717 15.3142 36.6092 17.3842C30.6292 20.9683 32.0476 28.8458 37.5292 31.05C36.4367 33.925 35.0184 36.7808 32.6609 38.8892L32.68 38.87ZM23.0584 13.8958C22.7709 9.62167 26.2401 6.095 30.2267 5.75C30.7826 10.695 25.7417 14.375 23.0584 13.8958Z" fill="black"/>
</svg>
